<?xml version="1.0" encoding="utf-8"?>
<!-- Generator: Adobe Illustrator 22.1.0, SVG Export Plug-In . SVG Version: 6.00 Build 0)  -->
<svg version="1.1" id="Layer_1" xmlns="http://www.w3.org/2000/svg" xmlns:xlink="http://www.w3.org/1999/xlink" x="0px" y="0px"
	 viewBox="0 0 945.6 977.5" style="enable-background:new 0 0 945.6 977.5;" xml:space="preserve">
<style type="text/css">
	.st0{fill:#CB7D30;}
	.st1{fill:#5C4621;}
	.st2{fill:#CC3524;}
	.st3{fill:#FF9E16;}
	.st4{fill:#FFD923;}
	.st5{fill:#00953A;}
	.st6{fill:#40B4E5;}
	.st7{fill:#C227B9;}
</style>
<title>donut</title>
<path class="st0" d="M517.7,80.5C296,60.8,100.2,224.5,80.5,446.3s144,417.5,365.7,437.2c221.7,19.7,417.5-144,437.2-365.7
	C903.2,296.1,739.4,100.3,517.7,80.5z M481.2,607.5c-69.3,0-125.5-56.2-125.5-125.5s56.2-125.5,125.5-125.5S606.7,412.7,606.7,482
	l0,0C606.7,551.3,550.5,607.5,481.2,607.5L481.2,607.5z"/>
<path class="st1" d="M868.4,414.8c-4.8-9.9-15.9-16-21.2-26.3c-5.2-10-7.8-21.1-9.8-32c-4.1-22.4-5-46.1-15.3-66.9
	c-15-30.4-47.6-47-76-65.6c-23.5-15.4-40.4-33.4-52.5-58.1c-12.3-25.1-35.3-41-62.3-47.5c-31.6-7.6-64.7-4.3-96.9-7.9
	c-36.6-4.1-71.3-21.9-108.8-20.2c-44.8,2-80.2,34.7-115.2,58.7c-22.6,15.5-48.4,25.7-73.7,36.2c-13.3,5.5-26.7,11.4-37.6,20.8
	c-37.6,32.5-32.5,93.6-62,133.5c-9.5,12.8-22.3,23-30.6,36.6c-14.5,24-12.5,54.6-6.1,81.9c6.4,27.3,16.6,54.2,16.9,82.3
	c0.3,27.8-9.1,56.9,1.5,82.7c11.7,28.8,43.1,41.8,58.5,67.5c18.6,31.1,24.5,64.6,54.4,88.8c32.3,26.2,76.6,31,113.9,49.5
	c41.1,20.4,73.8,53.7,122.7,38.8c16.6-5,32.3-12.9,48.9-18.1c30.8-9.5,63.6-9.3,95.6-13.6c31.9-4.4,65.2-14.7,85.6-39.6
	c7.1-8.6,12.3-18.6,18.8-27.7c19-26.6,47.7-44,73-64.6s49.1-47.5,51.1-80.1c1.7-28.4-13.5-57.6-4.4-84.5
	c8.9-26.2,21.5-33.8,29.5-60.3c2.8-9.8,4.7-19.8,5.7-30C873.5,437.7,873.8,425.9,868.4,414.8z M481.2,607.5
	c-69.3,0-125.5-56.2-125.5-125.5s56.2-125.5,125.5-125.5S606.7,412.7,606.7,482S550.5,607.5,481.2,607.5L481.2,607.5z"/>
<path class="st2" d="M627.8,727.4c-4.5-1.9-6.7-7-4.8-11.5l0,0l18.4-45.1c2-4.4,7.3-6.4,11.8-4.3c4.2,1.9,6.2,6.7,4.7,11l-18.4,45.1
	C637.6,727,632.4,729.2,627.8,727.4L627.8,727.4z"/>
<path class="st2" d="M315.1,779.2c-2.1-4.4-0.2-9.7,4.2-11.8c0,0,0,0,0,0l0,0l44-20.8c4.4-2.1,9.7-0.2,11.8,4.2
	c2.1,4.4,0.2,9.7-4.2,11.8l-44,20.8C322.5,785.5,317.2,783.6,315.1,779.2z"/>
<path class="st2" d="M760.7,423.1c2-4.5,7.3-6.4,11.7-4.4l44.4,20c4.5,2,6.5,7.3,4.5,11.8c-2,4.5-7.3,6.5-11.8,4.5l-44.4-20
	c-4.5-2-6.4-7.3-4.4-11.7L760.7,423.1z"/>
<path class="st2" d="M531.6,166.6c4.8,0.8,8.1,5.3,7.4,10.1c0,0,0,0,0,0l0,0l-7.6,48.1c-0.8,4.8-5.3,8.1-10.1,7.4
	c-4.8-0.8-8.1-5.3-7.4-10.1l7.5-48.1C522.2,169.2,526.7,165.9,531.6,166.6L531.6,166.6z"/>
<path class="st2" d="M184.9,620.1c2-4.5,7.3-6.4,11.7-4.4l44.4,20c4.5,2,6.5,7.3,4.5,11.8c-2,4.5-7.3,6.5-11.8,4.5l-44.4-20
	c-4.5-2-6.4-7.3-4.4-11.7L184.9,620.1z"/>
<path class="st2" d="M551.1,330c-1.7-4.6,0.7-9.7,5.3-11.4c0,0,0,0,0,0l0,0l45.8-16.7c4.6-1.7,9.7,0.7,11.4,5.3
	c1.7,4.6-0.7,9.7-5.3,11.4l-45.8,16.7C557.9,336.9,552.8,334.6,551.1,330C551.1,330,551.1,330,551.1,330z"/>
<path class="st2" d="M236.3,282.7c-4-2.8-4.9-8.4-2.1-12.4c0,0,0,0,0,0l0,0l28.2-39.7c2.8-4,8.3-5.1,12.3-2.3
	c4,2.8,5.1,8.3,2.3,12.3l-0.2,0.3l-28.2,39.7C245.8,284.6,240.3,285.5,236.3,282.7z"/>
<path class="st2" d="M331.1,442.7c-4.6,1.7-9.7-0.7-11.3-5.3c0,0,0,0,0,0l0,0l-16.5-45.8c-1.7-4.6,0.7-9.7,5.3-11.3
	s9.7,0.7,11.3,5.3l16.5,45.8C338.1,435.9,335.7,441,331.1,442.7C331.1,442.7,331.1,442.7,331.1,442.7z"/>
<path class="st3" d="M423.8,736.7c-3.9-2.9-4.8-8.5-1.8-12.4l29-39.2c2.9-3.9,8.5-4.8,12.4-1.9c3.9,2.9,4.8,8.5,1.9,12.4l0,0
	l-29,39.2C433.3,738.8,427.8,739.6,423.8,736.7L423.8,736.7z"/>
<path class="st3" d="M741.8,701.3c-4.9,0.4-9.2-3.2-9.6-8l-4.3-48.5c-0.4-4.9,3.2-9.2,8.1-9.6c4.9-0.4,9.2,3.2,9.6,8.1l4.3,48.5
	C750.3,696.6,746.7,700.9,741.8,701.3C741.9,701.3,741.9,701.3,741.8,701.3L741.8,701.3z"/>
<path class="st3" d="M656.2,511c-3.3-3.6-3-9.2,0.6-12.5c0,0,0,0,0,0l0,0l36.1-32.7c3.6-3.3,9.2-3.1,12.5,0.5
	c3.3,3.6,3.1,9.2-0.5,12.5l0,0l-36.1,32.7C665.2,514.9,659.6,514.6,656.2,511C656.3,511,656.3,511,656.2,511L656.2,511z"/>
<path class="st3" d="M479.6,319.8c-3.3-3.6-3-9.2,0.6-12.5c0,0,0,0,0,0l0,0l36.1-32.7c3.6-3.3,9.2-3,12.5,0.7
	c3.2,3.6,3,9.2-0.6,12.4l-36.1,32.7C488.5,323.7,482.9,323.5,479.6,319.8z"/>
<path class="st3" d="M249.8,339.4c-2.5-4.2-1-9.6,3.2-12.1l42.1-24.5c4.1-2.7,9.6-1.5,12.3,2.5c2.7,4.1,1.5,9.6-2.5,12.3
	c-0.3,0.2-0.6,0.4-0.9,0.5l-42.1,24.5C257.7,345.1,252.3,343.6,249.8,339.4z"/>
<path class="st3" d="M271,559.4c-3.6,3.3-9.2,3.1-12.5-0.6c0,0,0,0,0,0l0,0l-32.9-36c-3.5-3.4-3.5-9.1-0.1-12.5
	c3.4-3.5,9.1-3.5,12.5-0.1c0.1,0.1,0.2,0.2,0.3,0.4l0.3,0.3l32.9,36C274.8,550.5,274.6,556.1,271,559.4
	C271,559.4,271,559.4,271,559.4L271,559.4z"/>
<path class="st3" d="M663.4,244c-4.8,0.7-9.3-2.6-10.1-7.5l-7.2-48.2c-0.8-4.8,2.6-9.4,7.4-10.1c4.7-0.7,9.1,2.4,10,7
	c0,0.2,0,0.3,0,0.5l7.1,48.2C671.5,238.7,668.2,243.2,663.4,244L663.4,244z"/>
<path class="st4" d="M631.1,795c-4.2,2.5-9.6,1.1-12.1-3.1L594,750.1c-2.2-4.4-0.4-9.7,3.9-11.9c3.9-2,8.7-0.8,11.2,2.8l24.9,41.9
	C636.6,787.1,635.3,792.5,631.1,795z"/>
<path class="st4" d="M744.8,410.2c-4.2,2.5-9.6,1.1-12.1-3.1l-24.9-41.9c-2.5-4.2-1.1-9.6,3.1-12.1c4.2-2.5,9.6-1.1,12.1,3.1l0,0
	l24.9,41.9C750.4,402.3,749,407.7,744.8,410.2z"/>
<path class="st4" d="M582.2,197.4c-3.7-3.2-4.2-8.7-1.1-12.5c0,0,0,0,0,0l0,0l31.4-37.2c3.1-3.8,8.7-4.4,12.5-1.3s4.4,8.7,1.3,12.5
	c-0.1,0.1-0.1,0.2-0.2,0.2l0,0l-31.4,37.2C591.6,200,586,200.6,582.2,197.4C582.3,197.4,582.2,197.4,582.2,197.4z"/>
<path class="st4" d="M214.3,370.6c-4.5,1.8-9.7-0.4-11.5-4.9c0,0,0,0,0,0l0,0l-18.1-45.3c-2.2-4.4-0.5-9.7,3.9-11.9
	c4.4-2.2,9.7-0.5,11.9,3.9c0.2,0.3,0.3,0.7,0.4,1l0.2,0.4l18.1,45.3C221.1,363.6,218.9,368.8,214.3,370.6z"/>
<path class="st4" d="M306.7,596.7c-4.5-1.9-6.6-7.1-4.7-11.6c0,0,0,0,0,0l0,0l19.2-44.8c1.9-4.5,7.2-6.5,11.7-4.6s6.5,7.2,4.6,11.7
	l0,0l-19.2,44.8C316.4,596.6,311.2,598.6,306.7,596.7z"/>
<path class="st4" d="M306.6,706.2c-1.4,4.7-6.4,7.3-11,5.9L249,698c-4.7-1.4-7.3-6.4-5.9-11s6.4-7.3,11-5.9l46.6,14.1
	C305.4,696.6,308,701.5,306.6,706.2L306.6,706.2z"/>
<path class="st5" d="M762.9,569.3c-4.5,1.9-9.7-0.2-11.6-4.7l-19.1-44.8c-2.3-4.3-0.6-9.7,3.8-11.9c4.3-2.3,9.7-0.6,11.9,3.8
	c0.2,0.4,0.4,0.8,0.5,1.2l19.2,44.8C769.5,562.2,767.4,567.4,762.9,569.3C762.9,569.3,762.9,569.3,762.9,569.3L762.9,569.3z"/>
<path class="st5" d="M539.4,826.9c-4.5,1.9-9.7-0.2-11.6-4.7l-19.1-44.8c-2.3-4.3-0.6-9.7,3.8-11.9c4.3-2.3,9.7-0.6,11.9,3.8
	c0.2,0.4,0.4,0.8,0.5,1.2l19.1,44.8C546,819.7,543.9,824.9,539.4,826.9z"/>
<path class="st5" d="M630.1,431.6c-4.3-2.4-5.9-7.7-3.5-12l0,0l23.4-42.7c2.2-4.4,7.5-6.1,11.9-4c4.4,2.2,6.1,7.5,4,11.9
	c-0.1,0.1-0.1,0.2-0.2,0.3l-0.1,0.3l-23.4,42.8C639.7,432.4,634.4,434,630.1,431.6z"/>
<path class="st5" d="M360.3,303.4c-4.3-2.4-5.9-7.7-3.5-12l0,0l23.4-42.7c2.4-4.3,7.8-5.7,12.1-3.3c4.2,2.4,5.7,7.6,3.5,11.8
	l-23.4,42.7C370,304.2,364.6,305.8,360.3,303.4z"/>
<path class="st5" d="M262.1,477.6c0.8-4.8,5.3-8.1,10.1-7.4l48.2,7.2c4.8,0.7,8.2,5.2,7.5,10.1c-0.7,4.8-5.2,8.2-10.1,7.5l0,0
	l-48.1-7.2C264.8,487,261.4,482.5,262.1,477.6L262.1,477.6z"/>
<path class="st5" d="M389.6,668.9c-3.1,3.8-8.6,4.4-12.4,1.4l-38.1-30.4c-3.7-3.2-4.2-8.7-1.1-12.5c3-3.6,8.4-4.2,12.1-1.4
	l38.1,30.4C392.1,659.5,392.7,665,389.6,668.9z"/>
<path class="st6" d="M687.8,607.6c-2.7,4.1-8.1,5.3-12.3,2.6c0,0,0,0,0,0l0,0l-40.9-26.6c-4.1-2.7-5.3-8.1-2.6-12.3
	c2.7-4.1,8.1-5.3,12.3-2.6l40.9,26.6C689.3,598.1,690.5,603.5,687.8,607.6C687.8,607.6,687.8,607.6,687.8,607.6L687.8,607.6z"/>
<path class="st6" d="M471.4,836.5c-2.7,4.1-8.1,5.3-12.3,2.6c0,0,0,0,0,0l0,0l-40.9-26.6c-4.1-2.7-5.3-8.1-2.6-12.3
	c2.7-4.1,8.1-5.3,12.3-2.6l40.9,26.6C472.9,826.9,474.1,832.4,471.4,836.5C471.4,836.5,471.4,836.5,471.4,836.5L471.4,836.5z"/>
<path class="st6" d="M465.5,185.6c-2.7,4.1-8.1,5.3-12.3,2.6c0,0,0,0,0,0l0,0l-40.9-26.6c-4.1-2.7-5.3-8.1-2.6-12.3
	c2.7-4.1,8.1-5.3,12.3-2.6l40.9,26.6C467,176,468.2,181.5,465.5,185.6C465.5,185.6,465.5,185.6,465.5,185.6L465.5,185.6z"/>
<path class="st6" d="M243.1,444c-2.7,4.1-8.1,5.3-12.3,2.6c0,0,0,0,0,0l0,0L189.9,420c-4.1-2.7-5.3-8.1-2.6-12.3
	c2.7-4.1,8.1-5.3,12.3-2.6l40.9,26.6C244.5,434.4,245.7,439.9,243.1,444C243.1,444,243.1,444,243.1,444z"/>
<path class="st7" d="M536.3,691.4c-4.4-2.1-6.3-7.4-4.2-11.8c0,0,0,0,0,0l0,0l21-44c2-4.5,7.2-6.5,11.7-4.5c4.5,2,6.5,7.2,4.5,11.7
	c-0.1,0.1-0.1,0.3-0.2,0.4l0,0l-20.9,44C546,691.7,540.8,693.6,536.3,691.4C536.3,691.5,536.3,691.5,536.3,691.4L536.3,691.4z"/>
<path class="st7" d="M181.2,536.4c-4.3,2.4-9.7,0.9-12.1-3.3c0,0,0,0,0,0l0,0l-24-42.4c-2.3-4.3-0.7-9.7,3.6-12
	c4.2-2.2,9.4-0.8,11.8,3.3l24,42.4C186.9,528.6,185.4,534,181.2,536.4z"/>
<path class="st7" d="M377.2,222.9c-4,2.9-9.5,2-12.4-1.9l-28.7-39.4c-2.9-4-2-9.5,1.9-12.4s9.5-2,12.4,1.9l0,0l28.7,39.4
	C382,214.5,381.2,220,377.2,222.9z"/>
<path class="st7" d="M756.5,316.8c-3.9,2.9-9.5,2.1-12.4-1.8l-29-39.2c-2.9-3.9-2.2-9.5,1.8-12.4c3.8-2.9,9.2-2.2,12.2,1.5l0.3,0.4
	l29,39.2C761.3,308.3,760.5,313.8,756.5,316.8C756.6,316.7,756.6,316.7,756.5,316.8L756.5,316.8z"/>
<path class="st7" d="M802.3,542.6c-4.6-1.8-6.8-6.9-5-11.5l0,0l17.7-45.4c1.9-4.5,7-6.7,11.6-4.8c4.4,1.8,6.6,6.8,4.9,11.3
	l-17.7,45.4C812,542.1,806.8,544.3,802.3,542.6z"/>
</svg>
