<?xml version="1.0" encoding="utf-8"?>
<!-- Generator: Adobe Illustrator 22.1.0, SVG Export Plug-In . SVG Version: 6.00 Build 0)  -->
<svg version="1.1" id="Layer_1" xmlns="http://www.w3.org/2000/svg" xmlns:xlink="http://www.w3.org/1999/xlink" x="0px" y="0px"
	 viewBox="0 0 820 350" style="enable-background:new 0 0 1000 300;" xml:space="preserve">
<style type="text/css">
	.st0{fill:#66423B;stroke:#51352B;stroke-width:10;stroke-miterlimit:10;}
	.st1{fill:#845D59;stroke:#492E2E;stroke-width:5;stroke-miterlimit:10;}
	.st2{fill:none;stroke:#EFEFEF;stroke-width:5;stroke-linecap:round;stroke-linejoin:round;stroke-miterlimit:10;}
	.st3{display:none;}
	.st4{display:inline;fill:#7C3131;}
	.st5{display:inline;fill:#4F2121;}
	.st6{display:none;fill:#994B4B;}
	.st7{display:none;fill:#DDDDDD;}
</style>
<g id="Favorite">
</g>
<g>
	<g>
		<path d="M359.2,160c0,42.1-25.3,78.3-74.4,78.3c-47.5,0-72.3-34.5-72.3-77.8c0-44,27.4-77.8,74.4-77.8
			C331.2,82.7,359.2,113.7,359.2,160z M246.3,159.8c0,29.5,13,51.9,39.8,51.9c29.1,0,39.4-24.4,39.4-51.3
			c0-28.6-11.7-51.1-39.9-51.1C258.2,109.3,246.3,130.4,246.3,159.8z M327.4,212.9l43,29.5l-18.9,21.7l-53.3-36.9L327.4,212.9z"/>
		<path d="M368.8,76h31.4v28h-31.4V76z M368.8,122.6h31.4v113.5h-31.4V122.6z"/>
		<path d="M413.4,151.2c0-9.7,0-20.2-0.2-28.6h30.4c0.6,2.9,1,10.8,1.2,14.5c3.9-7.1,13-17.1,32.9-17.1c22.8,0,37.6,15.4,37.6,43.9
			v72.2h-31.4v-68.7c0-12.8-4.3-22-18.1-22c-13.4,0-21,7.4-21,27.5v63.3h-31.4V151.2z"/>
		<path d="M632.1,76v128.9c0,10.3,0,20.8,0.2,31.2h-30.2c-0.6-3.4-1.2-9.3-1.4-11.9c-5.5,8.9-15.3,14.5-32.2,14.5
			c-28.7,0-47-23.1-47-58.5c0-34.9,19.4-60.3,51.6-60.3c16.3,0,25.1,5.8,27.6,10.9V76H632.1z M553.7,179.4c0,22.1,8.6,34.1,24,34.1
			c21.6,0,24.1-18,24.1-34.3c0-19.4-2.7-34.1-23.3-34.1C562,145.1,553.7,158,553.7,179.4z"/>
		<path d="M669.6,186c0,14.2,7.1,28.1,22.8,28.1c13.1,0,16.8-5.3,19.8-12.1h31.5c-4,13.9-16.4,36.7-52.1,36.7
			c-37.4,0-53.6-28-53.6-57.8c0-35.6,18.3-61.1,54.8-61.1c39,0,52.3,28.2,52.3,56.6c0,3.8,0,6.3-0.4,9.6H669.6z M713.4,166.7
			c-0.2-13.2-5.5-24.3-20.8-24.3c-15.1,0-21.1,10.4-22.4,24.3H713.4z"/>
		<path d="M750.9,153.4c0-11.3,0-21.3-0.2-30.8h30.8c0.4,2.5,0.8,13.8,0.8,19.9c5-13,17.1-22.5,36.4-22.6v30
			c-22.8-0.6-36.4,5.5-36.4,36.7v49.5h-31.4L750.9,153.4L750.9,153.4z"/>
	</g>
</g>
<g>
	<path class="st0" d="M160.8,52h-48.3c0,8.3-8.7,15-19.5,15c-0.7,0-1.5,0-2.2-0.1c-0.8,18.6-20.6,33.5-45,33.5c-0.6,0-1.2,0-1.8-0.1
		C43.2,108,34.8,114,24.6,114v150c0,9.7,10.3,17.5,22.8,17.5h113.4c12.6,0,22.8-7.9,22.8-17.5V69.5C183.6,59.8,173.3,52,160.8,52z"
		/>
	<path class="st1" d="M122.5,128.8h34.1c7.8,0,14.1-6.3,14.1-14.1V80.6c0-7.8-6.3-14.1-14.1-14.1h-34.1c-7.8,0-14.1,6.3-14.1,14.1
		v34.1C108.4,122.5,114.7,128.8,122.5,128.8z"/>
	<g>
		<path class="st1" d="M122.5,197.8h34.1c7.8,0,14.1-6.3,14.1-14.1v-34.1c0-7.8-6.3-14.1-14.1-14.1h-34.1c-7.8,0-14.1,6.3-14.1,14.1
			v34.1C108.4,191.5,114.7,197.8,122.5,197.8z"/>
		<path class="st1" d="M51.5,197.8h34.1c7.8,0,14.1-6.3,14.1-14.1v-34.1c0-7.8-6.3-14.1-14.1-14.1H51.5c-7.8,0-14.1,6.3-14.1,14.1
			v34.1C37.4,191.5,43.7,197.8,51.5,197.8z"/>
	</g>
	<g>
		<path class="st1" d="M122.5,266.9h34.1c7.8,0,14.1-6.3,14.1-14.1v-34.1c0-7.8-6.3-14.1-14.1-14.1h-34.1c-7.8,0-14.1,6.3-14.1,14.1
			v34.1C108.4,260.6,114.7,266.9,122.5,266.9z"/>
		<path class="st1" d="M51.5,266.9h34.1c7.8,0,14.1-6.3,14.1-14.1v-34.1c0-7.8-6.3-14.1-14.1-14.1H51.5c-7.8,0-14.1,6.3-14.1,14.1
			v34.1C37.4,260.6,43.7,266.9,51.5,266.9z"/>
	</g>
	<polyline class="st2" points="139.6,75.8 120.8,75.8 120.8,95.1 	"/>
	<polyline class="st2" points="139.6,145.3 120.8,145.3 120.8,164.5 	"/>
	<polyline class="st2" points="68.6,145.3 49.8,145.3 49.8,164.5 	"/>
	<polyline class="st2" points="139.6,214.7 120.8,214.7 120.8,234 	"/>
	<polyline class="st2" points="68.6,214.7 49.8,214.7 49.8,234 	"/>
	<g class="st3">
		<path class="st4" d="M84.8,739.6c-17.6,0-31.9-14.3-31.9-31.9v-69.1l178-90.2h5.7v159.3c0,17.6-14.3,31.9-31.9,31.9H84.8z"/>
		<path class="st5" d="M233.1,551.9v155.8c0,15.7-12.7,28.4-28.4,28.4H84.8c-15.7,0-28.4-12.7-28.4-28.4v-66.9l175.2-88.9
			L233.1,551.9 M240.1,544.9h-7h-1.3h-1.7l-1.5,0.8L53.3,634.6l-3.8,1.9v4.3v66.9c0,19.5,15.9,35.4,35.4,35.4h119.9
			c19.5,0,35.4-15.9,35.4-35.4V551.9L240.1,544.9L240.1,544.9L240.1,544.9z"/>
	</g>
	<path class="st6" d="M133.4,479.8v5.1c0,15.7,12.7,28.4,28.4,28.4h119.9c15.7,0,28.4-12.7,28.4-28.4v-5.1H133.4z"/>
	<path class="st7" d="M120,495.5v0.5c25.9,12.9,69.6,7.4,110.7-16.3c33.5-19.4,57.4-46.3,66-71.2v-1.9h-1.3L120,495.5z"/>
	<path class="st1" d="M92.9,71.5c-0.2,0-0.4,0-0.7,0v0.1c0,24.9-20.1,45-45,45c-1.2,0-2.4-0.1-3.5-0.2c-0.5,2.7-1.5,5.3-2.9,7.5
		c2.6,3,6.4,5,10.7,5h34.1c7.8,0,14.1-6.3,14.1-14.1V80.6c0-3.6-1.4-6.9-3.6-9.4C95.1,71.3,94,71.5,92.9,71.5z"/>
</g>
</svg>
