<?xml version="1.0" encoding="utf-8"?>
<!-- Generator: Adobe Illustrator 22.1.0, SVG Export Plug-In . SVG Version: 6.00 Build 0)  -->
<svg version="1.1" id="Layer_1" xmlns="http://www.w3.org/2000/svg" xmlns:xlink="http://www.w3.org/1999/xlink" x="0px" y="0px"
	 viewBox="0 0 200 250" style="enable-background:new 0 0 200 350;" xml:space="preserve">
<style type="text/css">
	.st0{fill:#66423B;stroke:#51352B;stroke-width:10;stroke-miterlimit:10;}
	.st1{fill:#845D59;stroke:#492E2E;stroke-width:5;stroke-miterlimit:10;}
	.st2{fill:none;stroke:#EFEFEF;stroke-width:5;stroke-linecap:round;stroke-linejoin:round;stroke-miterlimit:10;}
	.st3{display:none;}
	.st4{display:inline;fill:#7C3131;}
	.st5{display:inline;fill:#4F2121;}
	.st6{display:none;fill:#994B4B;}
	.st7{display:none;fill:#DDDDDD;}
</style>
<g id="Favorite">
</g>
<g>
	<path class="st0" d="M152.4,14.5h-48.3c0,8.3-8.7,15-19.5,15c-0.7,0-1.5,0-2.2-0.1c-0.8,18.6-20.6,33.5-45,33.5
		c-0.6,0-1.2,0-1.8-0.1c-0.8,7.7-9.2,13.7-19.4,13.7v150c0,9.7,10.3,17.5,22.8,17.5h113.4c12.6,0,22.8-7.9,22.8-17.5V32
		C175.2,22.3,164.9,14.5,152.4,14.5z"/>
	<path class="st1" d="M114.1,91.3h34.1c7.8,0,14.1-6.3,14.1-14.1V43.1c0-7.8-6.3-14.1-14.1-14.1h-34.1c-7.8,0-14.1,6.3-14.1,14.1
		v34.1C100,85,106.3,91.3,114.1,91.3z"/>
	<g>
		<path class="st1" d="M114.1,160.3h34.1c7.8,0,14.1-6.3,14.1-14.1v-34.1c0-7.8-6.3-14.1-14.1-14.1h-34.1c-7.8,0-14.1,6.3-14.1,14.1
			v34.1C100,154,106.3,160.3,114.1,160.3z"/>
		<path class="st1" d="M43.1,160.3h34.1c7.8,0,14.1-6.3,14.1-14.1v-34.1c0-7.8-6.3-14.1-14.1-14.1H43.1c-7.8,0-14.1,6.3-14.1,14.1
			v34.1C29,154,35.3,160.3,43.1,160.3z"/>
	</g>
	<g>
		<path class="st1" d="M114.1,229.4h34.1c7.8,0,14.1-6.3,14.1-14.1v-34.1c0-7.8-6.3-14.1-14.1-14.1h-34.1c-7.8,0-14.1,6.3-14.1,14.1
			v34.1C100,223.1,106.3,229.4,114.1,229.4z"/>
		<path class="st1" d="M43.1,229.4h34.1c7.8,0,14.1-6.3,14.1-14.1v-34.1c0-7.8-6.3-14.1-14.1-14.1H43.1c-7.8,0-14.1,6.3-14.1,14.1
			v34.1C29,223.1,35.3,229.4,43.1,229.4z"/>
	</g>
	<g>
	</g>
	<polyline class="st2" points="131.2,38.3 112.4,38.3 112.4,57.6 	"/>
	<polyline class="st2" points="131.2,107.8 112.4,107.8 112.4,127 	"/>
	<polyline class="st2" points="60.2,107.8 41.4,107.8 41.4,127 	"/>
	<polyline class="st2" points="131.2,177.2 112.4,177.2 112.4,196.5 	"/>
	<polyline class="st2" points="60.2,177.2 41.4,177.2 41.4,196.5 	"/>
	<g class="st3">
		<path class="st4" d="M76.4,702.1c-17.6,0-31.9-14.3-31.9-31.9v-69.1l178-90.2h5.7v159.3c0,17.6-14.3,31.9-31.9,31.9H76.4z"/>
		<path class="st5" d="M224.7,514.4v155.8c0,15.7-12.7,28.4-28.4,28.4H76.4c-15.7,0-28.4-12.7-28.4-28.4v-66.9l175.2-88.9
			L224.7,514.4 M231.7,507.4h-7h-1.3h-1.7l-1.5,0.8L44.9,597.1l-3.8,1.9v4.3v66.9c0,19.5,15.9,35.4,35.4,35.4h119.9
			c19.5,0,35.4-15.9,35.4-35.4V514.4L231.7,507.4L231.7,507.4L231.7,507.4z"/>
	</g>
	<path class="st6" d="M125,442.3v5.1c0,15.7,12.7,28.4,28.4,28.4h119.9c15.7,0,28.4-12.7,28.4-28.4v-5.1H125z"/>
	<path class="st7" d="M111.6,458v0.5c25.9,12.9,69.6,7.4,110.7-16.3c33.5-19.4,57.4-46.3,66-71.2v-1.9H287L111.6,458z"/>
	<path class="st1" d="M84.5,34c-0.2,0-0.4,0-0.7,0v0.1c0,24.9-20.1,45-45,45c-1.2,0-2.4-0.1-3.5-0.2c-0.5,2.7-1.5,5.3-2.9,7.5
		c2.6,3,6.4,5,10.7,5h34.1c7.8,0,14.1-6.3,14.1-14.1V43.1c0-3.6-1.4-6.9-3.6-9.4C86.7,33.8,85.6,34,84.5,34z"/>
</g>
</svg>
